<?xml version="1.0" standalone="no"?>
<!DOCTYPE svg PUBLIC "-//W3C//DTD SVG 20010904//EN"
 "http://www.w3.org/TR/2001/REC-SVG-20010904/DTD/svg10.dtd">
<svg version="1.0" xmlns="http://www.w3.org/2000/svg"
 width="260.000000pt" height="260.000000pt" viewBox="0 0 260.000000 260.000000"
 preserveAspectRatio="xMidYMid meet">
<metadata>
Created by potrace 1.11, written by Peter Selinger 2001-2013
</metadata>
<g transform="translate(0.000000,260.000000) scale(0.100000,-0.100000)"
fill="#000000" stroke="none">
<path d="M1025 2592 c-86 -13 -95 -24 -244 -270 -105 -173 -129 -222 -168
-335 -25 -72 -45 -143 -45 -157 0 -14 8 -55 18 -91 l17 -67 -37 -88 c-21 -49
-47 -109 -58 -133 -11 -24 -44 -103 -74 -177 l-54 -133 4 -143 5 -143 71 -205
c39 -113 81 -233 92 -267 l21 -63 -22 -112 c-12 -62 -24 -122 -27 -133 -3 -11
-7 -32 -10 -47 l-5 -27 665 0 665 0 -9 25 c-33 86 -148 347 -220 499 -59 124
-101 216 -120 261 l-18 41 37 13 c71 26 100 22 209 -27 l103 -47 72 12 c40 7
90 15 112 18 22 3 44 7 49 7 10 2 30 17 69 51 12 10 37 30 55 43 40 31 40 41
2 54 -25 9 -30 16 -30 43 0 19 -5 33 -12 33 -17 1 -89 13 -108 18 -8 2 -30 7
-49 10 -68 12 -69 29 -2 45 87 21 86 14 32 198 l-47 163 -50 37 c-28 20 -66
48 -85 62 -18 13 -38 28 -44 32 -18 14 -208 153 -255 185 -25 18 -116 59 -202
93 l-157 62 26 71 c27 78 57 135 193 376 50 88 90 165 90 173 0 21 -35 37 -71
32 -70 -11 -78 -13 -103 -29 -14 -9 -56 -51 -93 -93 -37 -42 -81 -92 -98 -111
-77 -87 -126 -134 -120 -116 73 210 115 341 111 352 -5 12 -29 14 -81 5z"/>
</g>
</svg>
